<?xml version="1.0" standalone="no"?>
<!DOCTYPE svg PUBLIC "-//W3C//DTD SVG 20010904//EN"
        "http://www.w3.org/TR/2001/REC-SVG-20010904/DTD/svg10.dtd">
<svg version="1.0" xmlns="http://www.w3.org/2000/svg"
     width="1024.000000pt" height="1024.000000pt" viewBox="0 0 1024.000000 1024.000000"
     preserveAspectRatio="xMidYMid meet">

    <g transform="translate(0.000000,1024.000000) scale(0.100000,-0.100000)"
       fill="#ffffff" stroke="none">
        <path d="M4965 8216 c-214 -35 -398 -126 -558 -276 -176 -165 -281 -353 -328
-586 -51 -259 1 -511 155 -738 46 -69 46 -69 46 -156 0 -152 -42 -251 -148
-352 -99 -93 -151 -113 -302 -112 -84 0 -130 5 -170 18 -126 42 -247 126 -410
282 -173 166 -270 225 -434 264 -155 38 -343 22 -491 -41 -144 -62 -280 -189
-344 -322 -47 -97 -60 -149 -61 -238 0 -80 18 -144 60 -208 29 -46 76 -88 86
-78 3 3 -4 41 -15 85 -12 44 -21 92 -21 106 0 34 23 90 49 118 21 22 29 82 13
92 -5 3 -14 -11 -21 -30 -13 -36 -41 -47 -41 -15 0 17 19 81 26 90 2 2 10 -2
19 -9 35 -29 115 25 115 80 0 37 -18 39 -50 5 -23 -24 -60 -34 -60 -16 0 25
72 111 128 153 192 145 447 106 650 -100 32 -33 98 -117 147 -187 168 -240
231 -320 301 -382 68 -62 69 -63 38 -63 -38 0 -68 -30 -59 -59 9 -29 -12 -27
-66 8 -56 36 -89 68 -89 86 0 12 5 12 35 -1 46 -19 72 -18 83 4 13 23 0 51
-39 88 -59 55 -82 52 -103 -11 l-14 -38 -31 54 c-34 60 -36 67 -20 103 9 19 9
32 0 53 -14 34 -75 78 -96 69 -14 -5 -14 -9 0 -43 15 -35 14 -39 -17 -112 -31
-73 -33 -82 -33 -206 0 -124 2 -134 33 -212 18 -46 30 -88 26 -94 -4 -8 -26
-10 -60 -6 -112 11 -259 122 -316 237 -40 80 -40 167 1 212 26 29 34 32 83 32
41 0 65 -6 101 -27 54 -32 61 -21 24 34 -66 99 -199 123 -336 62 -143 -63
-244 -257 -226 -433 8 -73 37 -175 59 -205 14 -19 15 -19 33 -2 11 9 25 17 31
17 19 0 14 -40 -5 -47 -45 -16 -43 -24 25 -94 87 -91 191 -160 289 -193 43
-14 81 -26 84 -26 3 0 9 29 13 66 29 279 245 442 679 510 109 17 245 51 342
86 242 88 467 306 590 572 23 50 47 102 53 116 22 46 3 -98 -25 -190 -76 -257
-200 -408 -428 -522 -98 -50 -232 -91 -450 -138 -364 -79 -507 -160 -596 -337
-33 -66 -34 -72 -34 -183 0 -109 2 -118 32 -176 39 -74 72 -115 136 -165 30
-24 43 -41 35 -43 -7 -2 -87 -9 -178 -15 -91 -7 -241 -18 -335 -26 -93 -8
-278 -24 -410 -35 -132 -11 -287 -25 -345 -30 -58 -5 -157 -13 -220 -17 -92
-5 -107 -8 -75 -14 55 -10 1070 -30 1625 -32 387 -1 463 1 510 14 49 14 130
15 700 9 818 -8 4217 -3 4330 8 l85 7 -180 13 c-99 7 -286 22 -415 33 -129 11
-361 28 -515 39 -154 11 -332 24 -395 30 -63 5 -121 10 -129 10 -7 0 21 32 62
70 84 79 128 152 148 248 26 126 -15 263 -108 363 -114 122 -238 174 -600 249
-401 85 -610 222 -745 491 -43 87 -88 248 -87 313 0 39 1 39 11 16 61 -136 85
-182 135 -257 106 -160 248 -291 403 -372 96 -51 279 -104 458 -135 179 -31
279 -59 367 -102 82 -40 194 -137 231 -200 37 -63 64 -156 64 -221 l0 -55 34
6 c54 10 156 55 215 94 52 35 201 179 201 195 0 4 -12 13 -27 20 -43 18 -56
43 -27 54 9 3 21 -3 30 -16 22 -31 42 -26 60 17 42 98 59 211 43 296 -14 84
-70 194 -124 251 -112 115 -291 136 -397 47 -25 -21 -58 -76 -58 -96 0 -3 21
7 46 21 66 37 144 37 181 1 32 -32 42 -114 23 -174 -45 -136 -190 -261 -328
-283 -75 -12 -80 -5 -50 76 41 110 54 205 40 305 -7 47 -24 114 -38 148 -21
52 -23 67 -15 93 22 62 9 72 -46 35 -38 -27 -52 -60 -45 -106 3 -23 -3 -50
-18 -83 -26 -55 -35 -60 -44 -24 -15 58 -64 50 -121 -19 -36 -45 -37 -47 -21
-71 20 -31 25 -31 86 0 28 14 50 21 50 16 0 -18 -50 -69 -98 -100 -56 -36 -72
-39 -65 -12 11 43 -78 81 -107 46 -10 -12 -10 -21 1 -46 12 -29 11 -33 -10
-50 -31 -26 -93 -25 -116 1 -21 24 -25 19 50 61 33 18 62 35 65 38 3 4 38 35
79 71 74 64 132 137 304 383 148 210 288 324 447 363 137 33 254 6 368 -85 47
-38 112 -120 112 -143 0 -17 -38 -7 -60 17 -32 34 -50 32 -50 -6 0 -55 75
-110 107 -78 6 6 16 9 21 5 11 -7 35 -96 28 -104 -9 -9 -35 18 -38 40 -6 41
-28 32 -28 -11 0 -31 7 -47 30 -71 49 -50 50 -97 7 -247 -19 -66 -8 -68 48
-10 98 102 119 252 60 421 -67 190 -239 347 -460 416 -48 15 -107 24 -186 27
-150 7 -238 -11 -376 -78 -108 -52 -164 -94 -308 -234 -208 -202 -386 -285
-579 -272 -104 7 -156 26 -233 85 -121 92 -182 210 -191 367 l-5 91 61 90
c120 177 181 391 168 587 -17 251 -121 489 -290 665 -148 154 -312 254 -511
311 -132 38 -283 48 -410 27z m1019 -961 c1 -164 0 -173 -27 -245 -16 -41 -29
-88 -30 -104 -2 -28 -7 -31 -107 -66 -167 -58 -354 -163 -449 -253 -32 -32
-40 -36 -31 -17 23 44 243 255 333 319 81 58 91 62 112 51 32 -17 47 -6 34 26
-8 22 -5 31 20 60 78 88 110 181 118 344 9 169 25 100 27 -115z m-1704 32 c14
-91 51 -179 104 -247 34 -44 42 -59 35 -77 -5 -15 -4 -23 7 -27 8 -3 14 -15
14 -26 0 -28 18 -25 26 5 3 14 10 25 16 25 33 0 240 -170 337 -278 107 -118
113 -133 25 -61 -148 121 -320 212 -475 254 l-67 17 1 37 c0 20 -12 70 -28
111 -26 68 -29 87 -29 210 -1 74 3 158 9 185 l10 50 2 -55 c2 -30 8 -86 13
-123z m295 -645 c47 -23 125 -70 223 -133 52 -33 41 -39 -66 -39 -106 1 -160
15 -200 53 -40 38 -82 116 -82 151 0 25 0 25 38 9 20 -8 60 -27 87 -41z m1210
21 c-16 -85 -80 -162 -152 -182 -41 -12 -174 -14 -210 -5 l-23 6 23 17 c82 63
332 200 366 201 2 0 0 -17 -4 -37z m1665 -188 c0 -2 -22 -16 -49 -29 -85 -44
-193 -139 -296 -261 -138 -164 -200 -230 -268 -282 -101 -78 -239 -120 -354
-106 -63 7 -61 18 6 27 27 4 73 15 103 25 119 41 166 77 363 276 234 237 288
279 429 331 71 27 66 25 66 19z m-4573 -26 c139 -59 167 -81 413 -329 224
-226 271 -257 432 -290 50 -11 92 -21 94 -23 3 -2 -22 -7 -55 -11 -84 -10
-184 9 -271 51 -62 29 -94 55 -180 142 -58 58 -141 150 -184 204 -87 107 -181
193 -263 239 -77 44 -70 53 14 17z m2777 -659 c9 -25 35 -76 58 -115 163 -277
368 -405 753 -470 180 -30 374 -79 362 -91 -2 -2 -35 3 -73 11 -38 7 -123 17
-189 20 -283 15 -408 39 -545 108 -207 104 -376 362 -404 618 l-6 54 14 -45
c8 -25 21 -65 30 -90z m-1029 88 c-2 -7 -14 -53 -25 -103 -26 -106 -90 -246
-152 -330 -81 -110 -196 -192 -339 -240 -97 -33 -158 -42 -372 -55 -98 -6
-208 -17 -244 -24 -36 -8 -61 -10 -56 -6 15 15 185 58 318 80 308 52 472 125
621 276 34 35 81 92 103 126 50 75 116 210 126 256 3 17 11 32 15 32 5 0 8 -6
5 -12z m717 -253 c58 -192 127 -316 298 -535 150 -192 304 -333 462 -423 148
-85 369 -139 573 -139 110 -1 124 -3 90 -11 -22 -6 -121 -11 -220 -11 -172 0
-185 1 -298 32 -350 95 -635 330 -801 661 -97 191 -158 412 -155 558 l1 48 10
-40 c5 -22 24 -85 40 -140z m-416 -12 c-50 -357 -269 -710 -566 -910 -56 -37
-193 -107 -263 -133 -171 -64 -423 -87 -612 -56 -54 9 -100 18 -101 19 -1 1
82 2 184 2 206 0 275 11 418 66 116 45 214 102 323 189 114 91 202 185 316
335 157 208 237 364 284 556 32 129 40 96 17 -68z m-1406 -107 c0 -39 -103
-52 -134 -17 -16 17 -16 22 -2 56 l16 36 60 -32 c33 -17 60 -37 60 -43z
m-1054 -37 c23 -81 76 -161 157 -235 37 -34 67 -64 67 -68 0 -3 -18 -6 -40 -6
-89 0 -171 74 -210 189 -22 63 -23 73 -11 125 7 31 14 56 16 56 2 0 12 -27 21
-61z m5343 -39 c1 -70 -24 -140 -68 -192 -49 -57 -160 -106 -184 -81 -4 3 30
45 77 92 83 86 112 130 135 206 22 72 22 72 31 50 5 -11 9 -45 9 -75z m-4102
-356 c25 -13 33 -22 31 -38 -6 -43 -128 -27 -136 18 -8 37 46 47 105 20z
m2938 -11 c4 -12 -1 -24 -16 -36 -30 -24 -122 -21 -127 5 -8 39 128 69 143 31z
m-3288 -18 c-4 -8 -14 -15 -23 -15 -16 0 -16 2 1 20 20 22 31 20 22 -5z m143
10 c0 -8 -9 -15 -20 -15 -11 0 -20 7 -20 15 0 8 9 15 20 15 11 0 20 -7 20 -15z
m3270 0 c0 -8 -9 -15 -20 -15 -11 0 -20 7 -20 15 0 8 9 15 20 15 11 0 20 -7
20 -15z m130 -16 c0 -5 -4 -9 -10 -9 -5 0 -10 7 -10 16 0 8 5 12 10 9 6 -3 10
-10 10 -16z m-2960 -12 c74 -25 23 -81 -56 -61 -41 10 -61 33 -51 58 8 19 55
21 107 3z m2461 3 c25 -14 24 -35 -3 -54 -41 -29 -138 -15 -138 19 0 32 100
56 141 35z m-1225 -77 c69 -97 282 -312 391 -395 51 -39 93 -72 93 -74 0 -2
-246 -4 -546 -4 l-546 0 84 61 c102 76 324 297 402 402 32 42 62 77 66 77 5 0
30 -30 56 -67z m-1431 -43 c73 -13 189 -23 295 -27 l174 -6 -66 -61 c-141
-132 -393 -209 -622 -191 -90 7 -197 34 -227 58 -31 23 -69 90 -69 119 0 55
48 115 105 131 41 12 294 -3 410 -23z m3173 5 c56 -26 82 -65 82 -123 0 -171
-409 -228 -717 -100 -84 35 -202 114 -233 158 l-21 30 123 0 c115 1 221 11
443 44 50 7 131 14 180 15 76 1 98 -3 143 -24z m-2195 -110 c-2 -31 -37 -69
-57 -62 -20 6 -17 43 5 71 28 35 55 31 52 -9z m834 13 c29 -31 33 -61 10 -66
-27 -5 -57 26 -57 60 0 34 19 36 47 6z m-961 -121 c15 -41 -68 -122 -118 -115
-41 6 -34 41 18 87 47 41 90 53 100 28z m1135 -24 c52 -45 59 -53 59 -75 0
-21 -44 -25 -82 -7 -26 11 -68 67 -68 90 0 41 36 38 91 -8z m-1373 -135 c-2
-13 -15 -29 -32 -36 -24 -12 -30 -12 -44 2 -14 14 -14 17 3 36 10 11 31 20 47
20 25 0 29 -4 26 -22z m1593 4 c26 -22 20 -52 -10 -52 -29 0 -66 34 -58 53 8
22 39 21 68 -1z"/>
        <path d="M3060 7194 c-122 -33 -240 -126 -293 -230 -30 -59 -42 -130 -28 -164
6 -15 10 -18 10 -9 2 39 65 141 117 188 163 149 407 118 530 -68 14 -22 23
-45 19 -50 -10 -17 14 -88 40 -119 30 -36 31 -48 5 -62 -23 -12 -44 -82 -36
-121 4 -22 -7 -46 -54 -118 -33 -50 -60 -95 -60 -100 0 -16 156 -149 235 -200
75 -49 160 -81 174 -65 34 38 97 264 107 384 18 210 -76 445 -235 592 -64 60
-177 123 -255 144 -66 18 -206 17 -276 -2z m546 -349 c66 -134 76 -250 35
-393 -14 -48 -75 -153 -105 -181 -31 -29 -33 -18 -7 25 64 105 104 313 83 432
-19 107 -30 138 -78 209 l-45 68 36 -35 c20 -19 56 -75 81 -125z m-162 74 c-3
-5 -10 -7 -15 -3 -5 3 -7 10 -3 15 3 5 10 7 15 3 5 -3 7 -10 3 -15z m53 -85
c16 -26 11 -53 -12 -57 -14 -3 -36 48 -29 67 9 23 21 20 41 -10z m31 -193 c7
-43 -7 -73 -31 -69 -24 3 -33 33 -22 75 8 33 48 29 53 -6z m-50 -187 c-4 -38
-35 -55 -53 -30 -19 26 -2 56 31 56 22 0 25 -4 22 -26z"/>
        <path d="M6905 7196 c-97 -24 -185 -76 -271 -161 -93 -91 -122 -134 -164 -240
-79 -199 -76 -410 9 -636 34 -89 41 -95 92 -80 79 23 209 109 312 208 l57 55
-22 30 c-93 126 -101 142 -104 201 -2 54 -7 67 -49 123 -7 10 -1 22 19 43 23
24 30 42 34 88 4 45 12 66 39 101 66 87 132 126 240 144 112 17 215 -22 301
-116 41 -44 90 -133 93 -166 1 -8 5 1 9 20 35 144 -142 347 -338 389 -68 14
-193 13 -257 -3z m-193 -243 c-56 -80 -92 -201 -92 -308 0 -106 48 -290 95
-361 20 -30 19 -40 -1 -23 -28 23 -92 125 -114 180 -30 76 -37 197 -15 278 19
75 65 170 107 224 34 43 49 50 20 10z m68 -126 c0 -30 -24 -62 -38 -53 -13 8
-16 58 -5 69 16 17 43 6 43 -16z m-12 -220 c-2 -27 -7 -32 -28 -32 -20 0 -26
6 -28 28 -5 38 14 60 40 46 14 -8 18 -19 16 -42z m47 -162 c0 -35 -31 -47 -51
-20 -18 25 0 57 29 53 17 -2 22 -10 22 -33z"/>
        <path d="M2407 6373 c-4 -3 -7 -21 -7 -38 0 -54 55 -83 123 -64 38 10 73 47
59 61 -8 8 -142 48 -160 48 -5 0 -12 -3 -15 -7z"/>
        <path d="M7736 6359 c-38 -10 -71 -20 -73 -22 -2 -3 1 -16 8 -30 13 -28 34
-37 95 -37 51 0 74 23 74 73 0 43 -1 43 -104 16z"/>
        <path d="M2260 6325 c-72 -24 -83 -42 -49 -76 44 -44 145 6 137 69 -4 33 -10
33 -88 7z"/>
        <path d="M7890 6310 c0 -37 32 -68 79 -76 30 -6 38 -3 58 21 13 15 22 32 21
37 -4 11 -111 48 -140 48 -13 0 -18 -8 -18 -30z"/>
        <path d="M7586 6321 c-4 -5 -34 -25 -67 -43 -67 -37 -75 -63 -26 -86 24 -12
32 -11 64 5 53 26 79 66 67 100 -10 28 -28 40 -38 24z"/>
        <path d="M2620 6294 c-18 -47 45 -114 107 -114 25 0 57 35 50 53 -5 14 -121
87 -138 87 -5 0 -14 -12 -19 -26z"/>
        <path d="M2806 6164 c-43 -43 12 -133 82 -134 28 0 32 3 32 26 0 28 -39 84
-75 108 -22 14 -25 14 -39 0z"/>
        <path d="M7374 6140 c-76 -82 -81 -110 -21 -110 53 0 104 64 91 115 -10 39
-31 37 -70 -5z"/>
        <path d="M3605 4182 c-88 -42 -115 -100 -115 -247 0 -113 20 -180 63 -210 19
-13 19 -15 -16 -48 -48 -45 -57 -71 -63 -196 -6 -93 -4 -113 15 -163 45 -118
99 -150 256 -151 95 -1 107 1 161 28 47 25 62 39 83 80 24 46 26 59 26 185 0
124 -2 138 -23 175 -13 22 -33 46 -43 53 -19 13 -19 15 15 52 43 47 49 80 44
217 -4 132 -22 175 -89 213 -39 22 -58 25 -159 28 -96 2 -121 0 -155 -16z
m200 -163 c26 -22 27 -23 23 -120 -2 -57 -8 -103 -15 -110 -6 -6 -31 -13 -55
-16 -66 -8 -82 16 -86 128 -4 83 -3 89 22 113 31 32 74 34 111 5z m11 -420
c16 -18 19 -35 17 -122 -3 -109 -12 -131 -60 -140 -14 -2 -41 -1 -59 5 -27 7
-35 16 -44 46 -13 50 -13 168 1 195 17 31 28 37 80 37 34 0 51 -5 65 -21z"/>
        <path d="M1663 4114 c-2 -6 -3 -44 -1 -85 l3 -74 93 -3 92 -3 0 -399 c0 -261
4 -401 10 -405 6 -4 51 -3 100 1 l90 7 2 396 c3 389 3 396 23 393 11 -1 50 1
88 4 l67 6 0 79 c0 43 -1 80 -2 80 -2 1 -128 4 -282 8 -198 4 -280 3 -283 -5z"/>
        <path d="M8093 4112 l-153 -3 0 -483 0 -484 28 -5 c53 -10 372 -8 412 3 23 6
59 27 80 46 56 51 75 108 75 229 0 118 -17 163 -77 202 -21 14 -38 29 -38 33
0 3 12 13 26 20 48 26 68 83 69 195 0 123 -20 169 -91 211 -56 33 -120 40
-331 36z m210 -180 c19 -20 22 -33 22 -102 -1 -105 -10 -115 -108 -115 l-72 0
-3 109 c-1 61 0 116 3 124 9 24 130 12 158 -16z m8 -391 c19 -16 24 -30 27
-89 5 -85 -10 -135 -44 -151 -14 -6 -54 -11 -89 -11 l-65 0 0 135 0 135 74 0
c57 0 79 -4 97 -19z"/>
        <path d="M2299 4098 c0 -7 -2 -221 -4 -475 l-4 -463 94 0 95 0 2 198 3 197 80
0 80 0 3 -192 2 -193 95 0 95 0 0 464 0 463 -85 7 c-47 4 -90 4 -95 1 -6 -4
-10 -81 -10 -196 l0 -189 -85 0 -85 0 0 195 0 195 -90 0 c-65 0 -90 -3 -91
-12z"/>
        <path d="M7650 3741 c0 -257 -4 -378 -11 -395 -22 -46 -118 -58 -151 -19 -10
12 -14 101 -18 392 l-5 376 -98 3 -98 3 3 -388 c3 -369 4 -390 24 -433 25 -55
77 -102 137 -125 59 -22 235 -18 282 7 42 22 80 62 102 106 17 34 18 68 18
437 l0 400 -92 3 -93 3 0 -370z"/>
        <path d="M2940 3633 l0 -466 137 6 c75 4 174 7 220 7 l83 0 0 75 0 75 -125 0
-125 0 0 115 0 115 120 0 120 0 0 75 0 75 -89 0 c-49 0 -103 3 -120 6 l-31 7
0 108 0 109 130 0 130 0 0 73 0 74 -107 6 c-58 4 -159 7 -225 7 l-118 0 0
-467z"/>
        <path d="M7013 4093 l-33 -4 -2 -167 c-1 -92 -2 -176 -2 -187 -1 -18 -9 -20
-83 -23 l-83 -3 -2 188 -3 188 -92 3 -93 3 0 -461 0 -460 95 0 95 0 0 190 0
191 83 -3 82 -3 3 -192 2 -193 95 0 95 0 -2 468 -3 467 -60 1 c-33 1 -75 -1
-92 -3z"/>
        <path d="M6205 4077 c-101 -34 -137 -89 -143 -219 -4 -80 -2 -93 22 -142 29
-58 70 -94 178 -155 75 -42 88 -62 88 -133 0 -94 -24 -105 -177 -85 l-103 13
0 -81 0 -82 64 -11 c80 -15 219 -15 271 -1 23 7 57 28 81 53 51 50 70 123 60
229 -11 117 -60 182 -196 257 -41 23 -81 49 -87 58 -7 9 -13 37 -13 62 0 73
15 81 157 83 l118 2 3 69 c2 38 -1 73 -6 78 -16 16 -272 20 -317 5z"/>
        <path d="M4200 4072 c0 -4 -22 -125 -50 -267 -27 -143 -61 -325 -74 -405 -14
-80 -28 -160 -32 -177 l-6 -33 95 0 96 0 7 48 c3 26 9 65 13 87 l7 40 83 3
c46 2 88 -1 93 -6 5 -5 13 -37 19 -73 16 -106 8 -99 115 -99 52 0 93 4 90 8
-2 4 -11 46 -20 92 -8 47 -47 240 -86 430 -38 190 -70 348 -70 353 0 4 -63 7
-140 7 -77 0 -140 -4 -140 -8z m178 -375 c16 -92 26 -169 24 -172 -3 -3 -30
-5 -60 -5 l-55 0 7 63 c8 78 36 267 43 287 8 22 11 10 41 -173z"/>
        <path d="M4700 3637 l0 -447 90 0 90 0 0 160 0 160 33 0 32 0 59 -150 c33 -82
62 -153 65 -159 4 -5 49 -11 101 -12 76 -1 95 1 93 12 -2 8 -34 83 -73 167
-38 83 -70 155 -70 160 0 4 14 15 31 24 50 29 72 94 77 231 5 132 -7 183 -56
230 -48 46 -101 58 -294 64 l-178 6 0 -446z m328 265 c7 -10 12 -49 12 -107 0
-122 -9 -135 -96 -135 l-64 0 0 116 c0 150 4 158 78 149 34 -4 62 -13 70 -23z"/>
        <path d="M5312 3631 l3 -443 80 0 80 0 5 263 5 264 55 -160 55 -160 46 -3 c29
-2 50 2 56 10 6 7 33 78 59 158 l49 145 3 -257 2 -256 74 -7 c41 -4 79 -4 85
-1 8 5 11 144 11 452 l0 444 -94 0 -95 0 -19 -52 c-10 -29 -43 -122 -72 -205
-30 -84 -56 -153 -59 -153 -3 0 -25 57 -49 128 -23 70 -54 160 -70 200 l-27
74 -93 1 -92 2 2 -444z"/>
        <path d="M4840 3023 c-51 -3 -352 -18 -870 -43 -533 -26 -1376 -56 -1868 -66
-183 -4 -331 -9 -329 -11 2 -2 80 -10 172 -18 92 -8 279 -26 414 -40 135 -13
381 -36 546 -50 165 -14 440 -39 610 -55 171 -17 387 -37 480 -45 254 -23 255
-23 255 -46 0 -18 -10 -19 -242 -20 -134 -1 -331 -4 -438 -8 -188 -6 -192 -6
-105 -14 132 -12 357 -44 545 -77 292 -51 340 -61 448 -86 59 -13 136 -31 172
-39 96 -20 427 -104 454 -114 14 -6 41 -4 72 4 27 7 128 34 224 59 252 68 645
152 880 190 155 25 491 66 539 66 24 0 41 3 38 7 -7 7 -123 9 -589 11 -278 2
-288 3 -288 21 0 26 -100 15 1000 116 745 68 782 72 965 90 83 8 235 22 340
31 104 8 191 17 193 18 1 2 -116 6 -260 9 -145 4 -373 11 -508 17 -135 5 -387
14 -560 20 -173 6 -457 17 -630 25 -173 8 -425 19 -560 25 -135 6 -348 15
-475 20 -213 9 -494 11 -625 3z m-21 -138 c6 -6 8 -20 5 -32 -5 -18 -15 -21
-75 -25 -83 -4 -89 -11 -89 -90 0 -71 14 -81 103 -76 l62 3 3 -31 c4 -37 -11
-44 -103 -44 -69 0 -120 25 -135 66 -6 14 -10 54 -10 89 0 81 11 110 52 136
27 16 46 19 105 17 40 -2 77 -8 82 -13z m382 -33 c26 -23 31 -36 36 -87 7 -78
-10 -140 -44 -162 -36 -24 -159 -24 -195 -1 -36 24 -51 76 -46 160 3 62 7 73
31 94 25 21 38 24 107 24 73 0 82 -2 111 -28z m296 -42 c21 -38 41 -70 45 -70
4 0 20 29 37 65 l31 65 45 0 45 0 0 -79 c0 -43 3 -106 6 -140 l7 -61 -42 0
-41 0 -1 53 c0 28 -4 61 -8 72 -7 18 -11 15 -27 -22 -15 -35 -23 -42 -52 -45
-32 -4 -35 -1 -62 51 l-29 56 -1 -67 c0 -88 -5 -98 -46 -98 -34 0 -34 0 -34
48 0 26 3 91 7 145 l6 97 38 0 c37 0 39 -2 76 -70z m-1037 -175 c0 -33 -2 -35
-35 -35 -33 0 -35 2 -35 35 0 33 2 35 35 35 33 0 35 -2 35 -35z"/>
        <path d="M5048 2809 c-14 -8 -18 -24 -18 -74 0 -70 11 -85 65 -85 54 0 65 15
65 86 0 60 -2 65 -26 74 -32 13 -64 12 -86 -1z"/>
    </g>
</svg>
