<?xml version="1.0" encoding="UTF-8"?>
<svg version="1.1" xmlns="http://www.w3.org/2000/svg" width="250" height="250">
<path d="M0 0 C24.75 0 49.5 0 75 0 C75 2.97 75 5.94 75 9 C77.97 9 80.94 9 84 9 C84 23.19 84 37.38 84 52 C68.82 52 53.64 52 38 52 C38 54.64 38 57.28 38 60 C47.24 60 56.48 60 66 60 C66 63.3 66 66.6 66 70 C55.44 70 44.88 70 34 70 C34 73.3 34 76.6 34 80 C32.35 80 30.7 80 29 80 C29 82.64 29 85.28 29 88 C35.27 88 41.54 88 48 88 C48 94.27 48 100.54 48 107 C44.37 107 40.74 107 37 107 C37 104.03 37 101.06 37 98 C34.36 98 31.72 98 29 98 C29 108.56 29 119.12 29 130 C26.03 130.33 23.06 130.66 20 131 C20 135.29 20 139.58 20 144 C17.03 144 14.06 144 11 144 C11 147.3 11 150.6 11 154 C7.7 154 4.4 154 1 154 C1 165.88 1 177.76 1 190 C4.3 190 7.6 190 11 190 C11 193.3 11 196.6 11 200 C4.4 200 -2.2 200 -9 200 C-9 190.76 -9 181.52 -9 172 C-11.97 172 -14.94 172 -18 172 C-18 169.03 -18 166.06 -18 163 C-20.97 163 -23.94 163 -27 163 C-27 165.97 -27 168.94 -27 172 C-29.97 172 -32.94 172 -36 172 C-36 175.3 -36 178.6 -36 182 C-38.97 182 -41.94 182 -45 182 C-45 184.64 -45 187.28 -45 190 C-43.0509375 189.9690625 -43.0509375 189.9690625 -41.0625 189.9375 C-39.70834367 189.91600546 -38.35243917 189.92851801 -37 190 C-36 191 -36 191 -36 200 C-42.27 200 -48.54 200 -55 200 C-55 187.79 -55 175.58 -55 163 C-58.3 163 -61.6 163 -65 163 C-65 160.03 -65 157.06 -65 154 C-67.97 154 -70.94 154 -74 154 C-74 150.7 -74 147.4 -74 144 C-76.97 144 -79.94 144 -83 144 C-83 141.03 -83 138.06 -83 135 C-85.97 135 -88.94 135 -92 135 C-92 132.03 -92 129.06 -92 126 C-94.97 126 -97.94 126 -101 126 C-101 107.19 -101 88.38 -101 69 C-98.03 69 -95.06 69 -92 69 C-91 70 -91 70 -90.88647461 71.76586914 C-90.89171143 72.51473389 -90.89694824 73.26359863 -90.90234375 74.03515625 C-90.90556641 74.84404297 -90.90878906 75.65292969 -90.91210938 76.48632812 C-90.92048828 77.33646484 -90.92886719 78.18660156 -90.9375 79.0625 C-90.94201172 79.91650391 -90.94652344 80.77050781 -90.95117188 81.65039062 C-90.96299627 83.76695663 -90.98093231 85.88348685 -91 88 C-88.03 88 -85.06 88 -82 88 C-82 90.97 -82 93.94 -82 97 C-79.03 97 -76.06 97 -73 97 C-73 99.97 -73 102.94 -73 106 C-67.06 106 -61.12 106 -55 106 C-55 103.03 -55 100.06 -55 97 C-52.03 97 -49.06 97 -46 97 C-46 94.03 -46 91.06 -46 88 C-41.38 88 -36.76 88 -32 88 C-32 85.03 -32 82.06 -32 79 C-27.71 79 -23.42 79 -19 79 C-19 76.36 -19 73.72 -19 71 C-20.98 70.505 -20.98 70.505 -23 70 C-23 68.68 -23 67.36 -23 66 C-24.65 66 -26.3 66 -28 66 C-28 64.35 -28 62.7 -28 61 C-29.32 61 -30.64 61 -32 61 C-32 59.68 -32 58.36 -32 57 C-40.91 57 -49.82 57 -59 57 C-59 58.32 -59 59.64 -59 61 C-63.95 61 -68.9 61 -74 61 C-74 59.68 -74 58.36 -74 57 C-75.32 57 -76.64 57 -78 57 C-78 55.35 -78 53.7 -78 52 C-81.3 52 -84.6 52 -88 52 C-88 50.35 -88 48.7 -88 47 C-90.97 47 -93.94 47 -97 47 C-97 45.35 -97 43.7 -97 42 C-95.35 42 -93.7 42 -92 42 C-92 40.35 -92 38.7 -92 37 C-89.03 37 -86.06 37 -83 37 C-83 35.68 -83 34.36 -83 33 C-80.03 33 -77.06 33 -74 33 C-74 31.35 -74 29.7 -74 28 C-63.11 28 -52.22 28 -41 28 C-41 29.65 -41 31.3 -41 33 C-36.38 33 -31.76 33 -27 33 C-27 34.32 -27 35.64 -27 37 C-24.03 37 -21.06 37 -18 37 C-18 38.65 -18 40.3 -18 42 C-16.35 42 -14.7 42 -13 42 C-13 43.32 -13 44.64 -13 46 C-11.68 46 -10.36 46 -9 46 C-9 33.79 -9 21.58 -9 9 C-6.03 9 -3.06 9 0 9 C0 6.03 0 3.06 0 0 Z M11 14 C11 16.97 11 19.94 11 23 C13.64 23 16.28 23 19 23 C19 20.03 19 17.06 19 14 C16.36 14 13.72 14 11 14 Z M-13 57 C-13 57.99 -13 58.98 -13 60 C-11.68 60 -10.36 60 -9 60 C-9 59.01 -9 58.02 -9 57 C-10.32 57 -11.64 57 -13 57 Z " fill="#FFFFFF" transform="translate(123,25)"/>
<path d="M0 0 C24.75 0 49.5 0 75 0 C75 2.97 75 5.94 75 9 C77.97 9 80.94 9 84 9 C84 23.19 84 37.38 84 52 C68.82 52 53.64 52 38 52 C38 54.64 38 57.28 38 60 C47.24 60 56.48 60 66 60 C66 63.3 66 66.6 66 70 C55.44 70 44.88 70 34 70 C34 72.97 34 75.94 34 79 C23.11 79 12.22 79 1 79 C1 77.35 1 75.7 1 74 C-3.62 74 -8.24 74 -13 74 C-13 72.35 -13 70.7 -13 69 C-13.763125 69.061875 -14.52625 69.12375 -15.3125 69.1875 C-18.58204901 68.95939193 -18.78027479 68.21972521 -21 66 C-24.10839021 65.2730774 -24.10839021 65.2730774 -27 65 C-27 63.02 -27 61.04 -27 59 C-27.99 59 -28.98 59 -30 59 C-30 57.68 -30 56.36 -30 55 C-30.804375 54.87625 -31.60875 54.7525 -32.4375 54.625 C-33.283125 54.41875 -34.12875 54.2125 -35 54 C-35.33 53.34 -35.66 52.68 -36 52 C-38.08975009 51.49483001 -38.08975009 51.49483001 -40.5 51.3125 C-41.3146875 51.22613281 -42.129375 51.13976562 -42.96875 51.05078125 C-43.6390625 51.03402344 -44.309375 51.01726562 -45 51 C-45.33 51.33 -45.66 51.66 -46 52 C-43.03 52 -40.06 52 -37 52 C-37 53.32 -37 54.64 -37 56 C-44.59 56 -52.18 56 -60 56 C-60 57.32 -60 58.64 -60 60 C-64.29 60 -68.58 60 -73 60 C-73 58.68 -73 57.36 -73 56 C-74.65 56 -76.3 56 -78 56 C-78 54.68 -78 53.36 -78 52 C-81.3 52 -84.6 52 -88 52 C-88 50.35 -88 48.7 -88 47 C-90.97 47 -93.94 47 -97 47 C-97 45.35 -97 43.7 -97 42 C-95.35 42 -93.7 42 -92 42 C-92 40.35 -92 38.7 -92 37 C-89.03 37 -86.06 37 -83 37 C-83 35.68 -83 34.36 -83 33 C-80.03 33 -77.06 33 -74 33 C-74 31.35 -74 29.7 -74 28 C-63.11 28 -52.22 28 -41 28 C-41 29.65 -41 31.3 -41 33 C-36.38 33 -31.76 33 -27 33 C-27 34.32 -27 35.64 -27 37 C-24.03 37 -21.06 37 -18 37 C-18 38.65 -18 40.3 -18 42 C-16.35 42 -14.7 42 -13 42 C-13 43.32 -13 44.64 -13 46 C-11.68 46 -10.36 46 -9 46 C-9 33.79 -9 21.58 -9 9 C-6.03 9 -3.06 9 0 9 C0 6.03 0 3.06 0 0 Z M11 14 C11 16.97 11 19.94 11 23 C13.64 23 16.28 23 19 23 C19 20.03 19 17.06 19 14 C16.36 14 13.72 14 11 14 Z M-13 57 C-13 57.99 -13 58.98 -13 60 C-11.68 60 -10.36 60 -9 60 C-9 59.01 -9 58.02 -9 57 C-10.32 57 -11.64 57 -13 57 Z " fill="#FFFFFF" transform="translate(123,25)"/>
<path d="M0 0 C10.89 0 21.78 0 33 0 C33 1.65 33 3.3 33 5 C37.62 5 42.24 5 47 5 C47 6.32 47 7.64 47 9 C49.97 9 52.94 9 56 9 C56 10.98 56 12.96 56 15 C57.32 15 58.64 15 60 15 C60 16.32 60 17.64 60 19 C61.65 19 63.3 19 65 19 C65 21.97 65 24.94 65 28 C63.35 28 61.7 28 60 28 C60 29.65 60 31.3 60 33 C61.65 33 63.3 33 65 33 C65 34.65 65 36.3 65 38 C67.97 38 70.94 38 74 38 C74 39.32 74 40.64 74 42 C76.64 42 79.28 42 82 42 C82.495 44.475 82.495 44.475 83 47 C89.6 47 96.2 47 103 47 C103 45.35 103 43.7 103 42 C104.65 42.33 106.3 42.66 108 43 C108 45.64 108 48.28 108 51 C97.11 51 86.22 51 75 51 C75 49.35 75 47.7 75 46 C70.38 46 65.76 46 61 46 C61 44.35 61 42.7 61 41 C60.236875 41.061875 59.47375 41.12375 58.6875 41.1875 C55.41795099 40.95939193 55.21972521 40.21972521 53 38 C49.89160979 37.2730774 49.89160979 37.2730774 47 37 C47 35.02 47 33.04 47 31 C46.01 31 45.02 31 44 31 C44 29.68 44 28.36 44 27 C43.195625 26.87625 42.39125 26.7525 41.5625 26.625 C40.2940625 26.315625 40.2940625 26.315625 39 26 C38.505 25.01 38.505 25.01 38 24 C35.91024991 23.49483001 35.91024991 23.49483001 33.5 23.3125 C32.6853125 23.22613281 31.870625 23.13976562 31.03125 23.05078125 C30.3609375 23.03402344 29.690625 23.01726562 29 23 C28.505 23.495 28.505 23.495 28 24 C30.97 24 33.94 24 37 24 C37 25.32 37 26.64 37 28 C29.41 28 21.82 28 14 28 C14 29.32 14 30.64 14 32 C9.71 32 5.42 32 1 32 C1 30.68 1 29.36 1 28 C-0.65 28 -2.3 28 -4 28 C-4 26.68 -4 25.36 -4 24 C-7.3 24 -10.6 24 -14 24 C-14 22.35 -14 20.7 -14 19 C-16.97 19 -19.94 19 -23 19 C-23 17.35 -23 15.7 -23 14 C-21.35 14 -19.7 14 -18 14 C-18 12.35 -18 10.7 -18 9 C-15.03 9 -12.06 9 -9 9 C-9 7.68 -9 6.36 -9 5 C-6.03 5 -3.06 5 0 5 C0 3.35 0 1.7 0 0 Z " fill="#F60504" transform="translate(49,53)"/>
<path d="M0 0 C8.91 0 17.82 0 27 0 C27 1.32 27 2.64 27 4 C29.97 4 32.94 4 36 4 C36 5.65 36 7.3 36 9 C38.97 9 41.94 9 45 9 C45 10.32 45 11.64 45 13 C37.41 13 29.82 13 22 13 C22 14.32 22 15.64 22 17 C17.71 17 13.42 17 9 17 C9 15.68 9 14.36 9 13 C7.35 13 5.7 13 4 13 C4 11.35 4 9.7 4 8 C1.03 8 -1.94 8 -5 8 C-5 6.68 -5 5.36 -5 4 C-3.35 4 -1.7 4 0 4 C0 2.68 0 1.36 0 0 Z " fill="#990C0F" transform="translate(41,68)"/>
<path d="M0 0 C0.33 0 0.66 0 1 0 C1 1.65 1 3.3 1 5 C2.65 5 4.3 5 6 5 C6 6.65 6 8.3 6 10 C8.97 10 11.94 10 15 10 C15 11.32 15 12.64 15 14 C17.64 14 20.28 14 23 14 C23.33 15.65 23.66 17.3 24 19 C30.6 19 37.2 19 44 19 C44 17.35 44 15.7 44 14 C46.475 14.495 46.475 14.495 49 15 C49 17.64 49 20.28 49 23 C38.11 23 27.22 23 16 23 C16 21.35 16 19.7 16 18 C11.38 18 6.76 18 2 18 C2 16.35 2 14.7 2 13 C0.35 13 -1.3 13 -3 13 C-2.01 12.67 -1.02 12.34 0 12 C0 11.01 0 10.02 0 9 C-0.66 8.67 -1.32 8.34 -2 8 C-1.34 7.67 -0.68 7.34 0 7 C-0.2784375 5.824375 -0.2784375 5.824375 -0.5625 4.625 C-1 2 -1 2 0 0 Z " fill="#EF0607" transform="translate(108,81)"/>
<path d="M0 0 C10.89 0 21.78 0 33 0 C33 0.33 33 0.66 33 1 C22.44 1 11.88 1 1 1 C1 2.65 1 4.3 1 6 C-0.98 6 -2.96 6 -5 6 C-4.67 7.98 -4.34 9.96 -4 12 C6.395 11.505 6.395 11.505 17 11 C17 11.66 17 12.32 17 13 C17.66 13 18.32 13 19 13 C19 13.66 19 14.32 19 15 C10.09 15 1.18 15 -8 15 C-8 16.32 -8 17.64 -8 19 C-9.65 19 -11.3 19 -13 19 C-13 20.32 -13 21.64 -13 23 C-10.03 23 -7.06 23 -4 23 C-4 23.33 -4 23.66 -4 24 C-7.3 24 -10.6 24 -14 24 C-14 22.35 -14 20.7 -14 19 C-16.97 19 -19.94 19 -23 19 C-23 17.35 -23 15.7 -23 14 C-21.35 14 -19.7 14 -18 14 C-18 12.35 -18 10.7 -18 9 C-15.03 9 -12.06 9 -9 9 C-9 7.68 -9 6.36 -9 5 C-6.03 5 -3.06 5 0 5 C0 3.35 0 1.7 0 0 Z " fill="#EC0C0B" transform="translate(49,53)"/>
<path d="M0 0 C0.495 1.485 0.495 1.485 1 3 C1.62648437 2.96519531 2.25296875 2.93039063 2.8984375 2.89453125 C3.71570313 2.86746094 4.53296875 2.84039062 5.375 2.8125 C6.18710938 2.77769531 6.99921875 2.74289063 7.8359375 2.70703125 C8.55007812 2.80371094 9.26421875 2.90039062 10 3 C10.66 3.99 11.32 4.98 12 6 C14.05925139 6.72382467 14.05925139 6.72382467 16 7 C16 8.32 16 9.64 16 11 C16.99 11 17.98 11 19 11 C19 12.98 19 14.96 19 17 C19.928125 16.95875 20.85625 16.9175 21.8125 16.875 C25 17 25 17 28 19 C28 19.66 28 20.32 28 21 C29.65 21 31.3 21 33 21 C33 22.65 33 24.3 33 26 C37.62 26 42.24 26 47 26 C47 27.65 47 29.3 47 31 C46.505 29.02 46.505 29.02 46 27 C41.38 27 36.76 27 32 27 C32 25.68 32 24.36 32 23 C29.03 22.67 26.06 22.34 23 22 C23 20.68 23 19.36 23 18 C21.35 18 19.7 18 18 18 C18 16.35 18 14.7 18 13 C16.68 13 15.36 13 14 13 C14 11.68 14 10.36 14 9 C5.09 9 -3.82 9 -13 9 C-13 10.32 -13 11.64 -13 13 C-17.95 13 -22.9 13 -28 13 C-28 11.68 -28 10.36 -28 9 C-29.32 8.67 -30.64 8.34 -32 8 C-30.35 8 -28.7 8 -27 8 C-27 9.32 -27 10.64 -27 12 C-22.71 12 -18.42 12 -14 12 C-14 10.68 -14 9.36 -14 8 C-6.41 8 1.18 8 9 8 C9 6.68 9 5.36 9 4 C6.03 4 3.06 4 0 4 C0 2.68 0 1.36 0 0 Z " fill="#D78E8C" transform="translate(77,73)"/>
<path d="M0 0 C2.31 0 4.62 0 7 0 C7 0.99 7 1.98 7 3 C14.26 3 21.52 3 29 3 C29 2.01 29 1.02 29 0 C29.66 0 30.32 0 31 0 C31 1.98 31 3.96 31 6 C21.1 6 11.2 6 1 6 C0.67 4.02 0.34 2.04 0 0 Z " fill="#FA0102" transform="translate(124,97)"/>
<path d="M0 0 C0.33 0.99 0.66 1.98 1 3 C4.96 3 8.92 3 13 3 C13 2.34 13 1.68 13 1 C15.64 1 18.28 1 21 1 C21.33 2.65 21.66 4.3 22 6 C21.67 5.01 21.34 4.02 21 3 C19.02 3.33 17.04 3.66 15 4 C15 5.65 15 7.3 15 9 C24.9 9 34.8 9 45 9 C45 7.02 45 5.04 45 3 C44.34 3 43.68 3 43 3 C42.67 3.99 42.34 4.98 42 6 C42 4.35 42 2.7 42 1 C44.475 1.495 44.475 1.495 47 2 C47 4.64 47 7.28 47 10 C36.11 10 25.22 10 14 10 C14 8.35 14 6.7 14 5 C9.38 5 4.76 5 0 5 C0 3.35 0 1.7 0 0 Z " fill="#D81010" transform="translate(110,94)"/>
<path d="M0 0 C10.89 0 21.78 0 33 0 C33 0.33 33 0.66 33 1 C22.44 1 11.88 1 1 1 C1 2.65 1 4.3 1 6 C-0.98 6 -2.96 6 -5 6 C-5.144375 6.639375 -5.28875 7.27875 -5.4375 7.9375 C-6 10 -6 10 -7 11 C-9.28684338 11.2819396 -11.57363273 11.44777005 -13.87109375 11.62109375 C-16.20927403 11.82776636 -16.20927403 11.82776636 -18 14 C-18 12.35 -18 10.7 -18 9 C-15.03 9 -12.06 9 -9 9 C-9 7.68 -9 6.36 -9 5 C-6.03 5 -3.06 5 0 5 C0 3.35 0 1.7 0 0 Z " fill="#E65151" transform="translate(49,53)"/>
<!-- Removed excessive red area -->
<path d="M0 0 C8.91 0 17.82 0 27 0 C26.67 0.99 26.34 1.98 26 3 C26 2.34 26 1.68 26 1 C18.74 1 11.48 1 4 1 C4.33 2.98 4.66 4.96 5 7 C2.03 7 -0.94 7 -4 7 C-4.33 6.01 -4.66 5.02 -5 4 C-3.35 4 -1.7 4 0 4 C0 2.68 0 1.36 0 0 Z " fill="#DC143C" transform="translate(41,68)"/>
<path d="M0 0 C1.65 0 3.3 0 5 0 C3.515 1.98 3.515 1.98 2 4 C5.96 4 9.92 4 14 4 C14 2.68 14 1.36 14 0 C16.64 0 19.28 0 22 0 C22 0.33 22 0.66 22 1 C19.69 1 17.38 1 15 1 C15 2.32 15 3.64 15 5 C13.35 5 11.7 5 10 5 C10 6.32 10 7.64 10 9 C12.97 9 15.94 9 19 9 C19 9.33 19 9.66 19 10 C15.7 10 12.4 10 9 10 C9 8.35 9 6.7 9 5 C6.03 5 3.06 5 0 5 C0 3.35 0 1.7 0 0 Z " fill="#E15B59" transform="translate(26,67)"/>
<path d="M0 0 C0.66 0 1.32 0 2 0 C2 1.98 2 3.96 2 6 C-0.31 6 -2.62 6 -5 6 C-5 5.34 -5 4.68 -5 4 C-10.28 4 -15.56 4 -21 4 C-21 3.67 -21 3.34 -21 3 C-14.07 3 -7.14 3 0 3 C0 2.01 0 1.02 0 0 Z " fill="#EA080A" transform="translate(153,97)"/>
<path d="M0 0 C0.33 0.99 0.66 1.98 1 3 C1.62648438 2.96519531 2.25296875 2.93039063 2.8984375 2.89453125 C3.71570313 2.86746094 4.53296875 2.84039062 5.375 2.8125 C6.18710938 2.77769531 6.99921875 2.74289063 7.8359375 2.70703125 C8.55007812 2.80371094 9.26421875 2.90039062 10 3 C10.99 4.485 10.99 4.485 12 6 C14.05925139 6.72382467 14.05925139 6.72382467 16 7 C16 8.32 16 9.64 16 11 C16.99 11 17.98 11 19 11 C19 11.66 19 12.32 19 13 C17.35 13 15.7 13 14 13 C14 11.35 14 9.7 14 8 C12.35 8 10.7 8 9 8 C9 6.68 9 5.36 9 4 C6.03 4 3.06 4 0 4 C0 2.68 0 1.36 0 0 Z " fill="#DD2C2A" transform="translate(77,73)"/>
<path d="M0 0 C2.64 0 5.28 0 8 0 C7.67 0.66 7.34 1.32 7 2 C4.525 1.505 4.525 1.505 2 1 C2 2.32 2 3.64 2 5 C-3.94 5 -9.88 5 -16 5 C-15.67 4.01 -15.34 3.02 -15 2 C-15 2.66 -15 3.32 -15 4 C-10.05 3.67 -5.1 3.34 0 3 C0 2.01 0 1.02 0 0 Z " fill="#E5E5E5" transform="translate(149,94)"/>
<path d="M0 0 C1.32 0 2.64 0 4 0 C4 1.32 4 2.64 4 4 C8.62 4 13.24 4 18 4 C18 4.33 18 4.66 18 5 C17.26394531 5.06058594 16.52789062 5.12117188 15.76953125 5.18359375 C14.79371094 5.26738281 13.81789063 5.35117188 12.8125 5.4375 C11.84957031 5.51871094 10.88664062 5.59992188 9.89453125 5.68359375 C7.21350398 5.97666151 4.6337014 6.42703754 2 7 C2.33 5.02 2.66 3.04 3 1 C2.01 0.67 1.02 0.34 0 0 Z " fill="#E5E5E5" transform="translate(105,96)"/>
<path d="M0 0 C0.33 1.32 0.66 2.64 1 4 C1.928125 3.95875 2.85625 3.9175 3.8125 3.875 C7 4 7 4 10 6 C10 6.66 10 7.32 10 8 C8.35 8.33 6.7 8.66 5 9 C5 7.68 5 6.36 5 5 C3.35 5 1.7 5 0 5 C0 3.35 0 1.7 0 0 Z " fill="#ED5352" transform="translate(95,86)"/>
<path d="M0 0 C1.65 0 3.3 0 5 0 C5.33 1.32 5.66 2.64 6 4 C3.36 4 0.72 4 -2 4 C-1.34 2.68 -0.68 1.36 0 0 Z " fill="#FA0201" transform="translate(117,93)"/>
<path d="M0 0 C0.33 1.32 0.66 2.64 1 4 C-3.29 4 -7.58 4 -12 4 C-12 3.01 -12 2.02 -12 1 C-11.484375 1.165 -10.96875 1.33 -10.4375 1.5 C-7.26636124 2.15049 -4.22781666 2.0620734 -1 2 C-0.67 1.34 -0.34 0.68 0 0 Z " fill="#B22222"/>
<path d="M0 0 C2.475 0.495 2.475 0.495 5 1 C5 3.64 5 6.28 5 9 C4.67 9 4.34 9 4 9 C3.87625 8.030625 3.7525 7.06125 3.625 6.0625 C3.41875 5.051875 3.2125 4.04125 3 3 C2.34 2.67 1.68 2.34 1 2 C0.67 2.99 0.34 3.98 0 5 C0 3.35 0 1.7 0 0 Z " fill="#C51C1F" transform="translate(152,95)"/>
</svg>
